<svg id="Layer_1" data-name="Layer 1" xmlns="http://www.w3.org/2000/svg" viewBox="0 0 100 100"><defs><style>.cls-1{fill:#8b5e3c;}.cls-2{fill:#f1f2f2;}</style></defs><rect class="cls-1" width="100" height="100" rx="50"/><path class="cls-2" d="M63.11,29.21h.39l1,2.48q5.61,14.83,11.24,29.67c.52,1.36,1.18,2.66,1.82,4A5.83,5.83,0,0,0,78.74,67a3.18,3.18,0,0,0,2,.89c.33,0,.33,0,.28.4H68.48c-.07-.36-.06-.36.26-.4a17.33,17.33,0,0,0,1.75-.19,4.37,4.37,0,0,0,1.1-.39A2.51,2.51,0,0,0,73,65.07a7.36,7.36,0,0,0-.44-2.94c-.52-1.48-1.08-3-1.64-4.42q-1.61-4.26-3.23-8.54a1.56,1.56,0,0,0-.22-.4c0,.51.08,1,.11,1.53a27,27,0,0,1-1,9.83,14.3,14.3,0,0,1-3.29,5.71A10.31,10.31,0,0,1,56.87,69a8.5,8.5,0,0,1-3.1-.13A6.43,6.43,0,0,1,49,64.34a8.52,8.52,0,0,1,1.07-7.64,15.72,15.72,0,0,1,4.17-4.24c1.89-1.35,3.84-2.59,5.77-3.88a18,18,0,0,0,2.72-2,7.4,7.4,0,0,0,.9-1.11,1.53,1.53,0,0,0,.22-1.09.87.87,0,0,0-1.15-.77,2.58,2.58,0,0,0-.87.49c-.39.37-.74.81-1.1,1.22s-.86,1-1.32,1.52a2.47,2.47,0,0,1-1.18.71,1.06,1.06,0,0,1-1.49-1.14,3.43,3.43,0,0,1,.2-.94q3-8,6-15.94ZM61.89,33.8H61.8c0,.12-.1.23-.14.35L59,41.28c-.5,1.31-1,2.62-1.47,3.94a5.11,5.11,0,0,0-.29,1.26c0,.47.22.69.7.67a1.51,1.51,0,0,0,1-.44c.35-.32.68-.67,1-1,.54-.6,1.06-1.23,1.62-1.82a2.34,2.34,0,0,1,1.35-.73,1.18,1.18,0,0,1,1.38.89,2.89,2.89,0,0,1,.07.83,3.6,3.6,0,0,1-.87,2.06,10.48,10.48,0,0,1-2.17,2c-1.38,1-2.78,2-4.15,3A15.17,15.17,0,0,0,53.86,55a9,9,0,0,0-1.78,7.69A5.33,5.33,0,0,0,56,66.92a6.83,6.83,0,0,0,5.73-.84A9.65,9.65,0,0,0,65,62.35a19.75,19.75,0,0,0,2.24-9.65c0-1.1-.06-2.19-.14-3.28a13.91,13.91,0,0,0-.83-4l-3.79-10Z"/><path class="cls-2" d="M20.74,76.2l.08-.32c.41,0,.81,0,1.21-.07a4.39,4.39,0,0,0,3-1.74,9.38,9.38,0,0,0,1.68-3.64,18.73,18.73,0,0,0,.52-4.34q0-14,0-28.09a24.62,24.62,0,0,0-.34-4.53,7.58,7.58,0,0,0-.49-1.6,2.39,2.39,0,0,0-2.21-1.49h-.21c-.25,0-.31-.14-.23-.39H34v.34l-.88.13a2.36,2.36,0,0,0-1.74,1.32,7.35,7.35,0,0,0-.65,2.47,59.75,59.75,0,0,0-.23,6.69q0,12.21,0,24.42a13.66,13.66,0,0,1-.54,4,10.56,10.56,0,0,1-3.64,5.54,6.94,6.94,0,0,1-4.51,1.46,7.28,7.28,0,0,1-.8-.1A1.9,1.9,0,0,1,20.74,76.2Z"/><path class="cls-2" d="M46.26,30c.1.3,0,.39-.27.41a5.23,5.23,0,0,0-.87.13,2.45,2.45,0,0,0-1.65,1.66,7.9,7.9,0,0,0-.5,2.34c-.08,1.47-.17,2.94-.17,4.42q0,11,0,22a19.06,19.06,0,0,0,.42,4.39,5.7,5.7,0,0,0,.25.8,2.53,2.53,0,0,0,2.42,1.77c.38,0,.38,0,.37.39H36c-.09-.25,0-.37.25-.39a4.55,4.55,0,0,0,.91-.15,2.52,2.52,0,0,0,1.62-1.65,7.54,7.54,0,0,0,.48-2.25c.09-1.49.18-3,.18-4.46q0-11.14,0-22.28A19,19,0,0,0,39,32.9a7.46,7.46,0,0,0-.26-.8,2.54,2.54,0,0,0-2.41-1.73c-.37,0-.37,0-.34-.4Z"/><path class="cls-2" d="M83.81,71.7l.36.22c-.1.16-.17.31-.26.45a40.85,40.85,0,0,1-9.57,10.44,41.75,41.75,0,0,1-10.15,5.76,41,41,0,0,1-24.11,1.92A41.37,41.37,0,0,1,10.25,64.81a41.48,41.48,0,0,1,12.58-47,41.53,41.53,0,0,1,11.61-6.65A39.78,39.78,0,0,1,45,8.71a41.22,41.22,0,0,1,19.91,3l.39.17a.3.3,0,0,1,.17.47C52.35,7.1,39.59,7.75,27.42,15.13A39.55,39.55,0,0,0,10,37.39,41,41,0,0,0,49.25,91,41.14,41.14,0,0,0,83.81,71.7Z"/><path class="cls-2" d="M86.53,68.08c.14.15.23.25.33.34.78.72,1.56,1.44,2.36,2.15a.51.51,0,0,1,.17.66c-.11.24-.17.5-.27.78a1.84,1.84,0,0,0-.21-.54,1.08,1.08,0,0,0-.48-.23c-1-.32-2-.64-2.93-.94-.54-.17-.59-.14-1,.25l.54-1.67.08,0c-.08.49.22.65.59.76l2.45.79a.44.44,0,0,0,.32,0l-3-2.78,0-.13L89.71,67a1.8,1.8,0,0,0-.26-.14L86.81,66c-.45-.14-.54-.1-.88.25l.41-1.35a1.79,1.79,0,0,0,.23.58,1.49,1.49,0,0,0,.57.26l2.64.85.08,0c.41.13.8.21,1-.33l.06.07a9.44,9.44,0,0,1-.36,1.06.47.47,0,0,1-.33.2L87.38,68Z"/><path class="cls-2" d="M85.5,37.33c.36.42.42.45,1,.3l3-.84c.5-.15.54-.22.56-.74,0,0,0,0,0,0,.22.82.46,1.65.63,2.48a1.11,1.11,0,0,1-.56,1.22,1.09,1.09,0,0,1-1.32-.17c-.14-.14-.26-.29-.46-.52a3,3,0,0,1-.22.32c-.2.26-.41.5-.61.75a3,3,0,0,0-.88,1.57c-.09-.36-.2-.71-.27-1.07,0-.1.09-.23.16-.32.44-.55.88-1.1,1.33-1.64A.52.52,0,0,0,88,38c-.54.16-1.1.31-1.65.5-.28.09-.29.35-.23.61H86Zm2.82.53c.18.77.51,1.18,1,1.25a1,1,0,0,0,1-.5,1.07,1.07,0,0,0-.23-1.24Z"/><path class="cls-2" d="M90.11,55.45a2.31,2.31,0,0,1,2.14,1.39A2.35,2.35,0,0,1,90,60.19a2.51,2.51,0,0,1-2.43-1.9A2.38,2.38,0,0,1,90.11,55.45Zm0,3.94c.38-.06.67-.08,1-.15a1.31,1.31,0,0,0,1.09-1.17,1.29,1.29,0,0,0-.76-1.41,3.48,3.48,0,0,0-2.57-.26,1.3,1.3,0,0,0-1.07,1.33,1.4,1.4,0,0,0,1,1.36C89.24,59.24,89.73,59.3,90.13,59.39Z"/><path class="cls-2" d="M87.5,48a2.5,2.5,0,0,1,5,.06,2.46,2.46,0,0,1-2.56,2.36A2.4,2.4,0,0,1,87.5,48Zm2.17,1.63a4.54,4.54,0,0,0,1.79-.44,1.29,1.29,0,0,0,.74-1.27,1.26,1.26,0,0,0-.9-1.24,3.38,3.38,0,0,0-2.87.3,1.23,1.23,0,0,0-.64,1.27,1.33,1.33,0,0,0,.9,1.17A7.74,7.74,0,0,0,89.67,49.62Z"/><path class="cls-2" d="M70.44,8.77a10.58,10.58,0,0,1,.89.74.81.81,0,0,1,.09.48c0,1.18,0,2.36,0,3.54v.59c.15-.16.23-.23.29-.31.47-.58.94-1.15,1.41-1.74s.39-.51.12-1l1.17.94c-.09,0-.12,0-.15,0-.42-.18-.46-.18-.75.17-.47.55-.91,1.11-1.36,1.66l-1.06,1.31a1.58,1.58,0,0,1-.23.22l-.1,0-.08-4.82a1,1,0,0,0-.2.15c-.55.68-1.1,1.35-1.64,2-.18.23-.34.46-.15.79a4.25,4.25,0,0,1-1-.79c.46.24.73,0,1-.33.57-.73,1.16-1.45,1.75-2.17a.78.78,0,0,0,.06-1.1,1.71,1.71,0,0,1-.13-.23Z"/><path class="cls-2" d="M59.18,26.09h8.2v.8h-8.2Z"/><path class="cls-2" d="M77.74,22.56l-1.13-1.33,0-.06.17.07a.29.29,0,0,0,.47-.1,7.89,7.89,0,0,0,.44-.81.44.44,0,0,0-.07-.33c-.28-.36-.58-.69-.86-1a.36.36,0,0,0-.42-.12l-.52.16c-.47.17-.51.25-.39.74a2.74,2.74,0,0,1-.9-1,1.43,1.43,0,0,0,1.2,0l3.71-1.12.45-.09c-.09.22-.13.36-.19.48L78,21.4a1.12,1.12,0,0,0-.14,1.12Zm-.82-3.88c.37.42.66.82,1.06,1.2l.83-1.67-.08-.07Z"/><path class="cls-2" d="M86.73,27.82l.79,1.69-.13.1c0-.05,0-.12,0-.16-.28-.35-.38-.38-.79-.19l-2.93,1.37c-.43.21-.45.28-.27.71.1.25.22.48.33.73a1.17,1.17,0,0,0,1.1.71,1.27,1.27,0,0,1,.37.07,3.3,3.3,0,0,1-1.16.21c-.09,0-.21-.13-.26-.23-.48-1-.94-2-1.37-3a.68.68,0,0,1,.12.12.48.48,0,0,0,.63.16l.77-.35,2.28-1.07c.36-.16.64-.35.45-.85Z"/><path class="cls-2" d="M80.69,27l-1-1.54,0-.05.13.09c.26.23.37.25.68.08s.62-.39.92-.58c.62-.39,1.24-.77,1.85-1.17s.53-.35.45-1l1,1.59,0,0c-.08-.07-.14-.17-.23-.21a1.24,1.24,0,0,0-.43-.05.84.84,0,0,0-.3.15c-.89.55-1.78,1.11-2.66,1.68C80.65,26.36,80.64,26.39,80.69,27Z"/></svg>